<svg id="Layer_1" xmlns="http://www.w3.org/2000/svg" viewBox="0 0 796 281.676">
  <style>
    .st0{fill:#FEDFCC;}
  </style>
  <path class="st0" d="M59.604 149.972c-7.97 10.182-10.634 22.72-15.134 34.418-7.14 18.56-13.806 37.3-20.945 55.86-3.717 9.663-7.996 19.112-12.07 28.638-.986 2.308-2.16 4.535-3.57 7.47-4-3.968-5.7-8.412-5.856-13.067-.533-15.95-.63-31.9 5.176-47.2.887-2.338 1.004-4.967 1.477-7.46 2.843.553 3.752-1.18 4.59-3.49 2.51-6.904 5.222-13.732 7.855-20.59.01-.312.017-.623.024-.934.01-.3.01-.6 0-.9.895-1.49 1.875-2.936 2.67-4.477 6.423-12.458 12.824-24.927 19.207-37.406 2.366-4.63 4.666-9.292 6.996-13.94 2.2-1.27 3.71-2.666.87-4.843 3.237-7.545 6.77-14.98 9.618-22.67 2.362-6.376 3.918-13.05 5.83-19.59l-.946-1.934-.053.03c.015-1.618.03-3.235.043-4.852l-.03-1.914c.97-2.158 1.788-4.405 2.975-6.435.54-.924 1.812-1.42 2.752-2.11L73.098 86.5l.01 3.885c-.666 2.007-1.332 4.014-2 6.02.295.14.59.276.883.414l27.025-30.49c1.647.083 3.962.898 4.82.116 2.86-2.608 5.194-5.788 7.73-8.75.297.002.593 0 .89-.003l1.035-.977 4.758-4.72 5.842-4.887 2.793-2.825c1.778-1.006 3.612-1.926 5.326-3.03 10.117-6.525 19.874-13.703 30.407-19.464 9.528-5.21 19.994-8.1 31.312-4.082l-1.682-4.394c1.605.38 3.21.76 4.814 1.142 1.48 7.166 3.54 14.272 4.293 21.514.934 8.993 1.91 18.227.89 27.13-2.74 23.89-12.445 45.69-22.32 67.324-14.065 30.81-28.573 61.423-42.15 92.445-5.202 11.888-8.877 24.534-12.193 37.113-1.237 4.69.66 10.17.855 15.302.053 1.38-.893 2.797-1.38 4.197-1.523-.6-3.933-.8-4.414-1.87-2.058-4.57-4.292-9.276-5.073-14.154-1.278-7.982-1.504-16.134-2.124-24.22-1.37-17.846 3.694-34.364 10.418-50.557 1.502-3.617 2.637-7.387 4.247-11.957-3.528.613-6.15.96-8.72 1.533-10.068 2.247-20.08 4.762-30.194 6.773-4.807.955-9.794 1.38-14.7 1.372-6.958-.01-12.89-6.642-13.843-15.29-.557-5.057-.633-10.18-.655-15.274-.006-1.3 1.02-2.604 1.57-3.906l1.888-.942c1.614-.65 3.23-1.298 4.843-1.946 1.26-.168 2.558-.19 3.77-.526 8.274-2.296 16.473-4.88 24.8-6.952 16.822-4.183 33.43-9.627 51.133-9.083 1.256.04 2.587-2.388 3.883-3.668 1.937-3.837 3.802-7.713 5.823-11.506 12.768-23.954 24.69-48.283 33.638-73.982 1.183-3.397.662-4.688-3.004-4.916-7.83-.486-15.168.92-22.228 4.436-18.188 9.058-33.902 21.534-48.543 35.367-16.62 15.704-31.08 33.368-44.787 51.625-2.61 3.478-4.347 7.614-6.487 11.446l.022-.002c-.332 0-.664 0-.996.002l-5.722 8.686zm121.95-72.147l-1.49-.805-10.707 23.172 1.554.74 10.644-23.107zm-91.17.845l1.336 1.13 3.198-3.898-1.034-.9-3.5 3.668zm-2.022 5.076l-.838-.897c-.603.383-1.354.653-1.765 1.185-.405.524-.462 1.315-.672 1.988l.785.427 2.49-2.704zM302.813 117.314c.645 5.454 1.523 10.893 1.866 16.366.32 5.14.226 10.324-.01 15.474-.07 1.577-1.212 3.106-1.863 4.657-1.255 1.317-2.51 2.633-4.073 4.27 1.388.68 2.144 1.27 2.98 1.426 5.87 1.098 11.765 2.07 17.638 3.157 4.452.824 8.883 1.76 13.323 2.645 3.622 2.096 5.178 4.984 4.895 9.395-.272 4.242.245 8.595.9 12.824 1.815 11.69-4.86 19.14-12.973 25.488-17.64 13.8-37.616 23.316-58.727 30.483-15.31 5.198-30.727 10.08-46.103 15.085-1.207.393-2.45.87-3.692.925-4.43.2-6.91 2.58-8.26 6.636-.467 1.403-1.507 2.615-2.955 5.034l-2.84-7.596c-6.128.402-12.793.366-19.292 1.386-8.217 1.29-13.44-3.52-11.874-11.66.328-1.707.257-3.492.37-5.24 6.035 2.326 9.17 1.528 11.49-2.924l5.77-.96-.502 2.62c4.22 4.862 8.78 1.63 13.156 1.063.7-.09 1.198-1.754 1.79-2.69 1.735-.204 4.173.283 2.863-2.914l1.917-7.692c2.99-13.32 6.03-26.633 8.963-39.968 3.64-16.555 7.196-33.13 11.127-51.26-10.81 5.002-20.652 9.558-31.098 14.393-1.608-7.673-1.49-14.97 1.45-22.16.942-.37 1.885-.738 2.828-1.106 1.944 2.766 3.02 1.52 3.855-.835l9.538-4.14c-.345-.62-.69-1.237-1.037-1.854l-8.51 5.984c-1 0-2 .002-3 .004 4.906-3.177 9.597-6.77 14.762-9.448 12.564-6.514 26.4-8.94 40.127-11.604l-.534 5.07c8.38-.45 16.494-.89 24.607-1.327l13.704 3.588-.294-2.65c2.567.855 5.13 2.313 7.717.056zm15.39 81.68c-.648-.006-1.298-.01-1.947-.017 1.377-1.456 2.685-2.987 4.147-4.352 2.83-2.64 5.744-5.19 8.624-7.775l-.312-1.91c-5.087-1.403-10.1-3.253-15.277-4.124-12.447-2.094-24.93-2.398-37.594-1.206-15.058 1.418-30.146 2.26-44.616 7.07-1.435.476-2.996 2.253-3.435 3.74-1.436 4.87-2.438 9.87-3.502 14.842-2.36 11.03-4.657 22.075-6.98 33.114-.12 1.16-.51 3.28-.318 3.334 1.735.487 3.708 1.14 5.343.716 2.215-.576 4.09-2.375 6.294-3.09 4.052-1.31 8.37-1.862 12.344-3.352 12.82-4.805 25.583-9.77 38.26-14.937 4.498-1.833 8.687-4.423 13.017-6.667 1.764-2.083 6.306-1.385 5.772-5.767.65-.02 1.303-.043 1.953-.062v3.01l1.89-1.976c5.166-2.82 10.353-5.606 15.467-8.518.518-.295.6-1.356.883-2.062l2.543-.708-.544-1.017c-.67.573-1.34 1.144-2.01 1.714zm-44.245-61.48c-9.663.628-19.363.927-28.978 1.99-8.154.9-10.788 5.636-8.528 14.524l12.53-4.033c.538.296 1.092.878 1.608.847 11.743-.718 22.637-4.058 32.42-10.715.154-.104.058-.574.1-1.155-3.038-.484-6.095-.97-9.152-1.46zm-35.002-19.044l.384 1.692 15.006-3.28-.38-1.676-15.01 3.264zM401.812 130.737l.982-.997c10.307-5.344 20.793-10.133 32.693-10.537 15.314.676 30.5 1.968 44.46 9.18l.728-4.336c8.743 4.875 13.802 12.567 16.215 22.01.894 3.498.938 7.254 1.065 10.903.41 11.808.886 23.62.95 35.43.09 16.28-6.486 30.186-16.892 42.17-18.18 20.935-41.88 31.586-68.923 35.653-15.78 2.373-30.807-.27-45.266-6.563-11.69-5.087-17.68-14.757-18.668-26.933-1.55-19.098-1.27-38.195 5.404-56.58.532-1.467 1.374-2.82 2.073-4.225 2.574-4.15 5.15-8.297 7.723-12.447.324-.65.647-1.302.97-1.953l-.006.006 1.928-1.925h-.002l1.925-3.84.01-.002 1.9-.975c.33-.635.66-1.27.992-1.904l-.006.014c2.87-1.938 5.74-3.877 8.612-5.815l.035.03c.006.32.004.638-.005.957-.074.13-.15.257-.223.386l.203-.406c2.8-.35 5.662-.458 8.38-1.136 1.897-.472 4.134-1.292 5.285-2.714 3.087-3.812 5.672-8.03 8.568-12.253-.05-.052-.58-.624-1.108-1.196zm84.634 2.89c.134.073.268.147.4.222l-.403-.22-.96-.963-2.583-3.806c-.433.45-.866.9-1.3 1.347l3.884 2.457c.32.322.64.642.962.962zm-73.105 102.86l2.926-1.917 2.123-.157-.184-.663-1.94.822c-2.936.5-5.857 1.17-8.814 1.45-3.456.33-6.944.322-10.42.46 19.278-4.67 38.13-10.545 55.612-20.135 14.954-8.203 27.932-18.596 35.668-34.27 1.386-2.808 3.107-6.973 2.005-9.177-2.486-4.972-5.938-9.99-10.244-13.43-15.954-12.736-34.93-13.4-54.15-11.855-10.293.827-20.54 2.198-30.81 3.324-1.183-3.792-1.9-3.686-7.584 1.438l3.765.477c-1.568 5.735-4.793 10.222-9.885 13.375-.93.575-1.693 1.478-2.402 2.338-10.82 13.127-18.51 27.942-23.06 44.283-.963 3.464-.17 7.417-.185 11.145l2.868 8.653-2.986.84c4.887 6.917 11.55 9.617 18.927 10.905.624.11 1.525-1.37 2.296-2.11l22.087-.03 2.892-.005 21.49-5.5c-.07-.248-.142-.496-.213-.743l-9.78.48zM611.418 124.978c1.305 1.21 3.39 2.21 3.777 3.663 1.588 5.95 3.28 11.986 3.778 18.084.833 10.17 1.315 20.43.993 30.62-.73 23.144-8.312 43.863-24.917 60.35-7.293 7.24-15.443 14.062-24.304 19.163-11.647 6.705-24.648 11.066-38.462 9.29-13.525-1.737-20.104-8.102-21.685-24.248-2.778-28.346 3.826-55.31 13.635-81.65.102-.273.415-.468.63-.698.708-.703 1.653-1.284 2.084-2.128 3.323-6.513 6.43-13.14 9.874-19.587 1.047-1.96 2.933-3.472 4.435-5.19.325 5.18.95 10.362.853 15.53-.052 2.732-.92 5.67-2.183 8.12-10.575 20.496-18.743 41.845-23.004 64.555-.465 2.48.84 5.29 1.324 7.946-.25 1.208-1.08 3.157-.647 3.5 2.46 1.94 5.016 4.26 7.918 5.04 10.127 2.73 19.86.763 29.166-3.75l11.574-5.737c3.902-2.32 7.805-4.643 11.707-6.965l-.993-1.71c-1.198.652-2.364 1.76-3.602 1.847-1.702.12-3.46-.53-5.192-.85 9.123-7.674 18.573-15 27.28-23.12 8.676-8.094 14.2-18.477 17.33-29.865 2.42-8.812-2.428-15.59-7.6-22.14-2.525-3.2-4.512-6.833-6.618-10.344-.273-.455.205-1.36.336-2.058 1.864.922 3.51 1.772 3.977-1.518.452-3.185 2.198-4.85 5.62-3.226l.952.955.45.382-.378-.454c-.32-.318-.636-.636-.953-.954.946-.952 1.894-1.902 2.84-2.852zM790.315 113.458c-.058 6.524-5.385 9.523-9.656 12.17-7.932 4.915-16.515 8.888-25.117 12.574-6.545 2.805-13.54 4.56-20.147 6.72-5.024 11.1-10.04 22.292-15.15 33.44-10.577 23.077-20.73 46.32-25.524 71.432-.887 4.642-.467 9.537-.613 14.316-.057 1.83-.01 3.66-.684 5.598-3.418-3.36-3.844-7.847-4.006-11.92-1.102-27.72 3.223-54.63 13.234-80.534 3.334-8.626 7.185-17.053 10.776-25.58.28-.664.37-1.407.644-2.493-12.477 1.778-24.48 4.198-36.59 5.005-11.4.76-22.927.048-34.376-.495-3.895-.185-7.07-2.67-8.684-6.558.02-.67.038-1.337.056-2.005h6.617c.405-1.513.472-2.788 1.068-3.728.725-1.143 1.897-2 2.875-2.982l1.953-.937 7.68-.98 15.145-2.184-4.618-2.66c8.038-1.57 16.06-3.226 24.118-4.695 17.443-3.18 34.957-5.998 52.336-9.494 10.53-2.118 20.86-5.225 31.28-7.888l-5.427 3.854c1.732.562 3.13-.08 4.533-.093 6.09-.06 12.183.062 18.275.118zm-28.924 2.866l2.573-1.17c-.13-.272-.36-.788-.38-.78-.743.3-1.467.646-2.194.986-3.737.72-7.474 1.44-11.21 2.162.18.663.36 1.325.538 1.988l10.673-3.186z"/>
  <path class="st0" d="M191.44 12.495l-2.063-1 2.064 1z"/>
  <path class="st0" d="M68.234 142.263c2.444-1.364 4.746-3.154 7.355-4.022 17.607-5.854 35.364-11.18 53.903-13.274 3.622-.41 7.263-.653 10.896-.973-2.144.95-4.203 2.254-6.445 2.788-14.04 3.344-28.127 6.48-42.18 9.758-7.862 1.835-15.69 3.813-23.53 5.725z"/>
  <path class="st0" d="M67.293 142.17c.318.03.636.058.954.082l-.954-.082zM380.677 147.068l.773-1.665.61.43-1.348 1.266-.035-.032z"/>
  <path class="st0" d="M314.362 199.932l-3.872 1.94 3.872-1.94zM316.28 198.972l-1.945.98c.65-.326 1.297-.653 1.945-.98zM309.554 202.817l-1.948.983 1.948-.983zM301.77 206.718c.354-.01.71-.017 1.066-.026l-1.015 1.07-.05-1.044zM310.514 201.858l-.984.984.984-.984zM409.557 237.448l-6.732.974 6.732-.974z"/>
</svg>
