<svg id="Layer_1" xmlns="http://www.w3.org/2000/svg" viewBox="0 0 500 500">
  <style>
    .st0{fill:#FF5C5C;} .st1{fill:#FFFFFF;} .st2{fill:#FFBE83;} .st3{fill:#FF7E45;} .st4{fill:#FFA285;}
  </style>
  <circle class="st0" cx="250" cy="234" r="117"/>
  <path class="st1" d="M159.577 243.18c-.363.945-.93 2.373-1.7 4.282-1.858-.128-3.156-.192-3.892-.192-2.55 0-5.337.36-8.362 1.083.283-2.76.425-5.486.425-8.18 0-2.97-.176-5.287-.527-6.955-1.87-.257-4.78-.698-8.735-1.323-.374 1.877-.804 3.762-1.292 5.655-.555 2.166-1.156 4.01-1.802 5.534.67.225 2.397.433 5.185.626-.215 2.07-.323 3.962-.323 5.68-2.572-1.22-4.974-2.223-7.206-3.01-1.484-.528-3.388-1.09-5.71-1.683.316-.577.7-1.315 1.155-2.214l.902-1.757c.408.24 1.06.65 1.954 1.227 1.71-3.337 3.252-8.18 4.623-14.534 1.45-6.658 2.23-12.128 2.344-16.41 1.688-.29 3.252-.65 4.69-1.084 1.485-.465 3.09-1.107 4.81-1.925 1.678 3.867 3.52 9.698 5.525 17.494.917 3.77 2.135 8.76 3.653 14.967.215.835.844 1.485 1.887 1.95.805.256 1.604.512 2.397.77zm-12.985-21.537c0-2.198-1.054-3.297-3.16-3.297-1.53 0-2.913.577-4.148 1.732-1.292 1.203-1.938 2.59-1.938 4.163 0 2.086 1.263 3.13 3.79 3.13 3.638 0 5.456-1.91 5.456-5.727zM185.97 250.133c-.17.626-.38 1.412-.628 2.358l-10.452-2.766c1.167-2.63 1.75-6.72 1.75-12.272v-2.214c-.078-2.63-.566-3.946-1.46-3.946-.284 0-.658.168-1.123.505-1.892 1.347-3.235 4.283-4.028 8.807.022 1.556.543 4.484 1.563 8.783-2.583-1.636-5.172-2.454-7.767-2.454-1.722 0-2.918.425-3.586 1.275l.034-5.68c.363-.224.816-.336 1.36-.336.804 0 1.654.297 2.55.89-.636-1.267-1.208-4.41-1.718-9.432-.306-3.112-.516-5.863-.63-8.253-.056-1.283-.6-2.045-1.63-2.286-.34-.047-.84-.16-1.497-.336-.307-.128-.46-.834-.46-2.117 0-.4.023-.73.068-.987.215.16 4.696.65 13.444 1.468-1.462 3.272-2.192 7.58-2.192 12.92 1.382-6.047 3.898-10.747 7.546-14.1 1.008-.913 1.892-1.37 2.65-1.37 1.327 0 2.312 1.266 2.958 3.8.533 2.054.8 4.71.8 7.966 0 1.25-.046 2.502-.137 3.754-.33 4.395-.493 7.78-.493 10.154 0 2.23.153 3.77.46 4.62.634.353 1.507.77 2.617 1.25z"/>
  <path class="st1" d="M202.882 247.967c-2.3-.594-4.747-.89-7.342-.89-2.504 0-6.005.586-10.503 1.757.17-1.187.363-2.567.578-4.14 1.813-.304 2.994-.917 3.544-1.84.55-.922 1.01-2.635 1.384-5.137.363-2.374.544-4.692.544-6.954 0-2.406-.72-3.61-2.158-3.61-.453 0-.884.073-1.292.218-.623-1.94-.935-3.328-.935-4.162 4.645-.048 8.985-1.13 13.02-3.248.044.048.067.184.067.41 0 .352-.057.994-.17 1.924-.725 5.68-1.088 10.403-1.088 14.173 0 2.615.22 4.323.663 5.125.272.497.657.746 1.156.746.568 0 1.213-.217 1.94-.65.203-.112.322.024.356.41.122 1.394.202 3.35.236 5.87zm-.136-34.12c0 1.075-.872 1.99-2.617 2.743-1.542.674-3.174 1.01-4.896 1.01-1.61 0-2.93-.424-3.96-1.274-1.19-.995-1.785-2.422-1.785-4.283 0-2.406 1.96-3.61 5.88-3.61 2.175 0 3.97.57 5.388 1.71 1.325 1.057 1.988 2.292 1.988 3.704zM244.028 230.258c0 4.636-2.056 9.224-6.17 13.764l4.64 1.035c.24.45.562 1.155.97 2.117-.884-.064-2.532-.096-4.946-.096-2.232 0-4.657.032-7.274.096.827-1.364 1.705-3.61 2.634-6.737 1.008-3.4 1.513-6.072 1.513-8.013 0-1.636-.397-2.454-1.19-2.454-1.292 0-2.668 1.54-4.13 4.62-1.19 2.502-2.153 5.334-2.89 8.494 0 3.192.148 5.197.443 6.016.465.257 1.235.553 2.31.89-.124.305-.345 1.09-.662 2.358l-9.263-3.008c1.088-3.016 1.632-6.874 1.632-11.574 0-2.134-.028-3.48-.085-4.042-.193-1.94-.663-2.912-1.41-2.912-.284 0-.653.16-1.106.48-1.88 1.332-3.252 4.404-4.113 9.217.024 1.523.545 4.418 1.565 8.685-2.447-1.588-5.104-2.382-7.97-2.382-1.87 0-3.157.433-3.86 1.3l.07-5.583c.362-.193.803-.29 1.325-.29.86 0 1.705.266 2.532.795-.952-3.24-1.807-8.847-2.566-16.82-.113-1.075-.544-1.708-1.292-1.9-.69-.05-1.377-.105-2.056-.17-.42-.08-.63-1.058-.63-2.935h.358c1.292 0 5.835-.297 13.63-.89-1.2 3.465-1.8 7.34-1.8 11.622 0 .93.033 1.716.1 2.358 1.35-6.288 3.927-11.117 7.734-14.485.997-.882 1.864-1.323 2.6-1.323 2.12 0 3.178 3.353 3.178 10.058 0 1.973-.074 3.746-.22 5.318 1.075-2.615 2.27-4.853 3.585-6.713 2.277-3.176 4.634-4.764 7.07-4.764 1.654 0 3.025.735 4.113 2.203 1.088 1.466 1.632 3.355 1.632 5.665zM273.533 247.51c-.533-.53-1.4-.794-2.6-.794-1.45 0-3.088.337-4.912 1.01-1.823.675-3.25 1.46-4.282 2.36.397-2.696.595-4.493.595-5.39 0-.274-.034-.402-.102-.386-.044.016-.118.08-.22.193-1.904 2.214-4.175 3.56-6.815 4.042-1.258.225-2.323.337-3.195.337-2.583 0-4.436-.778-5.558-2.334-1.008-1.396-1.513-3.537-1.513-6.425 0-1.508.1-3.168.305-4.98.42-3.594 1.326-6.562 2.72-8.904 1.676-2.776 3.823-4.164 6.44-4.164 2.833 0 5.592 1.845 8.277 5.534 0-.802-.16-1.933-.476-3.393-.35-1.556-.748-2.823-1.19-3.802 5.575-1.203 9.427-2.358 11.557-3.465.204 1.01.306 2.03.306 3.056 0 .834-.07 1.347-.205 1.54-1.666.802-2.498 1.524-2.498 2.166v.048c0 .53.017 1.364.05 2.502s.052 2.013.052 2.623c0 5.15-.466 9.4-1.395 12.753.748-.658 1.637-.987 2.668-.987.544 0 1.048.09 1.513.266l.477 6.594zm-9.875-13.45c0-.675-.476-1.236-1.428-1.685-1.008-.48-2.323-.722-3.943-.722-2.12 0-4.158.56-6.118 1.684-1.905 1.107-2.856 2.222-2.856 3.345 0 .898.674 1.62 2.022 2.166 1.212.48 2.65.722 4.317.722 1.892 0 3.722-.642 5.49-1.925 1.677-1.235 2.515-2.43 2.515-3.586zM300.2 237.067c0 1.01-.29 2.262-.868 3.754-1.756 4.477-5.96 6.94-12.61 7.388-.964.064-1.53.096-1.7.096-2.63 0-4.567-.642-5.814-1.925-1.53-1.573-2.294-4.316-2.294-8.23 0-4.155.867-9.168 2.6-15.04-1.496.097-3.4.514-5.71 1.252-.137.032-.228-.072-.273-.313-.022-.13-.033-.57-.033-1.324 0-2.15.153-3.89.46-5.222 1.438.882 3.313 1.404 5.625 1.564-.034-1.3-.18-2.76-.442-4.38-.26-1.555-.39-2.357-.39-2.405 0-.144.016-.23.05-.253s.08-.036.136-.036c.748 0 2.51-.16 5.286-.48 2.776-.322 4.878-.61 6.305-.867.238-.032.363-.032.374 0 0 .08-.418 1.09-1.257 3.032-.986 2.277-1.728 4.258-2.226 5.942h1.156c2.89-.032 4.376-.22 4.46-.565.086-.345.128-.702.128-1.07 0-1.076-.418-2.054-1.257-2.937 2.073-1.604 3.467-2.446 4.18-2.527.216.513.324 1.283.324 2.31 0 .433-.02 1.067-.06 1.9-.04.835-.06 1.42-.06 1.758 0 .915.188 2.283.562 4.104.373 1.82.77 3.34 1.19 4.56-.477.32-.953.634-1.43.938-.747.465-1.302.698-1.665.698-.215 0-.368-.064-.46-.193-.135-.128-.447-1.003-.934-2.623-.464-1.508-.985-2.294-1.563-2.358-.295-.032-2.073-.048-5.337-.048-.215.24-.493 1.78-.833 4.62-.397 3.16-.595 6.088-.595 8.783 0 5.712.906 8.567 2.72 8.567.95 0 2.03-.37 3.237-1.107 1.206-.738 1.81-1.372 1.81-1.9 0-.16-.058-.29-.17-.386-.68-.225-1.83-.85-3.45-1.877-1.508-1.267-2.26-2.992-2.26-5.173 0-1.01.4-1.837 1.206-2.478.86-.674 2.034-1.01 3.518-1.01 1.1 0 2.357.208 3.773.625 3.062.93 4.592 2.543 4.592 4.837zM318.4 247.967c-2.3-.594-4.746-.89-7.34-.89-2.505 0-6.006.586-10.504 1.757.17-1.187.363-2.567.578-4.14 1.813-.304 2.994-.917 3.544-1.84.55-.922 1.01-2.635 1.385-5.137.363-2.374.544-4.692.544-6.954 0-2.406-.72-3.61-2.158-3.61-.454 0-.885.073-1.293.218-.623-1.94-.935-3.328-.935-4.162 4.645-.048 8.985-1.13 13.02-3.248.044.048.067.184.067.41 0 .352-.058.994-.17 1.924-.726 5.68-1.09 10.403-1.09 14.173 0 2.615.222 4.323.664 5.125.272.497.657.746 1.156.746.567 0 1.212-.217 1.938-.65.204-.112.323.024.357.41.123 1.394.202 3.35.236 5.87zm-.135-34.12c0 1.075-.872 1.99-2.617 2.743-1.54.674-3.173 1.01-4.895 1.01-1.61 0-2.93-.424-3.96-1.274-1.19-.995-1.785-2.422-1.785-4.283 0-2.406 1.96-3.61 5.88-3.61 2.175 0 3.97.57 5.388 1.71 1.326 1.057 1.99 2.292 1.99 3.704zM342.178 230.57c0 1.508-.13 3.33-.39 5.462-.454 3.786-1.45 6.946-2.992 9.48-1.994 3.273-4.65 4.91-7.97 4.91-3.015 0-5.74-1.364-8.176-4.09-2.572-2.888-3.858-6.353-3.858-10.396 0-3.176.963-6.192 2.89-9.047 2.186-3.24 5.03-5.174 8.53-5.8 1.123-.193 2.42-.29 3.893-.29 2.946 0 5.06.85 6.34 2.552 1.155 1.54 1.733 3.946 1.733 7.218zm-2.923 3.49c0-1.236-.725-2.207-2.175-2.913-1.314-.626-3.003-.938-5.065-.938-2.266 0-4.47.88-6.61 2.646-2.018 1.668-3.026 3.248-3.026 4.74 0 1.027.645 1.885 1.937 2.575s2.86 1.036 4.708 1.036c2.334 0 4.623-.778 6.866-2.334 2.243-1.556 3.365-3.16 3.365-4.813zM370 250.133c-.17.626-.38 1.412-.63 2.358l-10.45-2.766c1.166-2.63 1.75-6.72 1.75-12.272v-2.214c-.08-2.63-.566-3.946-1.462-3.946-.283 0-.657.168-1.122.505-1.892 1.347-3.235 4.283-4.028 8.807.023 1.556.544 4.484 1.564 8.783-2.583-1.636-5.172-2.454-7.767-2.454-1.722 0-2.918.425-3.586 1.275l.033-5.68c.363-.224.816-.336 1.36-.336.804 0 1.654.297 2.55.89-.636-1.267-1.208-4.41-1.718-9.432-.306-3.112-.516-5.863-.63-8.253-.056-1.283-.6-2.045-1.63-2.286-.34-.047-.84-.16-1.497-.336-.306-.128-.46-.834-.46-2.117 0-.4.024-.73.07-.987.214.16 4.695.65 13.443 1.468-1.46 3.272-2.19 7.58-2.19 12.92 1.38-6.047 3.897-10.747 7.545-14.1 1.008-.913 1.892-1.37 2.65-1.37 1.327 0 2.312 1.266 2.958 3.8.533 2.054.8 4.71.8 7.966 0 1.25-.046 2.502-.137 3.754-.33 4.395-.493 7.78-.493 10.154 0 2.23.153 3.77.46 4.62.634.353 1.507.77 2.617 1.25z"/>
  <path class="st2" d="M406 94c10.762 6.213 25.777 25.09 24 28-1.986 3.25-24.238-2.787-35-9s-17.714-14.293-13.986-20.75c3.728-6.457 14.224-4.463 24.986 1.75z"/>
  <path class="st3" d="M421.588 233.067c-.087 7.23-5.39 20.228-7.37 20.155-2.216-.082-5.492-13.093-5.405-20.324.087-7.23 2.207-13.06 6.545-13.008 4.34.052 6.317 5.946 6.23 13.177z"/>
  <path class="st4" d="M69.125 271.75c-1.083-5.67.995-16.677 2.557-16.935 1.745-.29 6.378 9.366 7.46 15.034 1.084 5.668.354 10.564-3.047 11.213-3.402.65-5.888-3.645-6.97-9.313z"/>
</svg>
