
<svg id="animationText" xmlns="http://www.w3.org/2000/svg" viewBox="0 0 1062 334">
<style type="text/css">
	.letter{fill:#FFF;}
	.pink{fill:#ffc1ba;}
</style>
	<path class="letter" d="M454.212,184.167c-7.496,15.295-14.982,30.596-22.495,45.883c-1.65,3.358-3.444,6.644-5.083,10.007
		c-2.572,5.278-4.978,4.491-7.527-0.038c-9.406-16.712-18.811-33.426-28.326-50.075c-2.042-3.573-3.423-7.667-7.598-10.787
		c-1.217,3.546-0.19,6.627,0.045,9.641c1.367,17.529,2.421,35.043-2.266,52.304c-2.045,7.532-4.969,14.674-10.526,20.347
		c-7.229,7.38-15.894,10.595-26.119,7.708c-6.826-1.928-11.238-8.541-10.71-15.508c0.316-4.162,1.804-7.746,5.86-9.701
		c4.326-2.085,8.196-0.974,11.731,1.839c1.085,0.864,1.998,1.967,2.9,3.036c8.007,9.498,15.46,8.592,20.134-3.002
		c5.639-13.988,5.434-28.826,4.952-43.592c-0.137-4.202-0.812-8.383-1.092-12.583c-0.662-9.947-4.125-17.751-14.916-20.229
		c-1.58-0.363-3.577-1.018-3.155-3.026c0.544-2.587,2.921-1.833,4.63-1.503c8.737,1.684,17.534,2.745,26.431,2.945
		c3.474,0.078,5.336,2.604,7.337,4.867c9.784,11.066,17.676,23.561,26.614,35.266c7.73,10.123,7.802,10.049,13.706-1.001
		c9.157-17.137,17.09-34.858,25.023-52.572c2.095-4.677,4.763-6.659,10.069-6.424c6.809,0.301,13.665-0.467,21.604-0.825
		c-4.118,5.069-9.239,4.053-13.399,5.341c-8.57,2.654-11.012,5.063-10.258,14c2.136,25.282,7.418,49.932,15.878,73.885
		c2.86,8.097,8.903,12.229,16.829,14.336c1.817,0.483,4.901,0.269,4.221,3.356c-0.488,2.217-3.211,1.873-4.841,1.683
		c-16.363-1.904-32.076,1.41-47.726,5.527c-2.081,0.547-5.369,2.217-6.008-0.875c-0.557-2.697,3.228-2.639,5.216-3.45
		c2.575-1.05,5.343-1.618,7.996-2.49c4.653-1.529,6.851-4.836,6.263-9.657c-2.661-21.827-8.149-43.042-13.359-64.314
		C455.57,184.378,454.891,184.272,454.212,184.167z"/>
	<path class="letter" d="M839.167,258.169c-35.721-0.116-57.759-22.631-57.639-58.886c0.112-33.773,23.075-57.019,56.099-56.788
		c35.268,0.246,59.413,23.923,59.274,58.124C896.76,235.316,873.721,258.281,839.167,258.169z"/>
	<path class="letter" d="M251.716,256.272c-26.652-27.353-45.642-59.579-69.768-88.316c-2.927,3.392-2.108,6.59-2.114,9.366
		c-0.057,28.307-0.045,56.616,0.234,84.922c0.073,7.423,0.219,14.994,4.694,21.613c3.749,5.546,9.864,7.372,15.392,11.019
		c-15.517-2.672-30.692-7.022-46.311-4.239c-0.408-2.795,0.705-3.043,1.917-3.185c13.101-1.537,17.099-5.335,18.428-18.345
		c1.405-13.758,0.993-27.589,0.792-41.384c-0.283-19.405,0.315-38.844-1.688-58.2c-1.252-12.1-3.026-13.732-15.269-14.126
		c-1.169-0.038-2.346,0.009-3.507-0.109c-1.528-0.155-2.722-0.922-2.728-2.578c-0.005-1.464,1.303-1.888,2.445-1.948
		c10.5-0.552,20.999-1.209,31.508-1.442c3.796-0.084,6.185,3.124,8.514,5.694c14.138,15.601,28.112,31.351,42.326,46.882
		c3.038,3.32,6.108,9.578,10.446,7.889c4.005-1.56,2.69-8.385,2.913-12.919c0.378-7.693,0.436-15.444-0.044-23.128
		c-0.772-12.349-3.274-14.821-15.337-16.807c-1.779-0.293-4.764,0.155-4.586-2c0.248-2.997,3.299-1.748,5.189-1.522
		c11.787,1.408,23.296-0.318,34.76-2.796c2.138-0.462,5.339-2.326,6.132,0.483c0.918,3.251-2.82,2.686-4.87,3.193
		c-11.447,2.829-14.311,5.716-14.904,17.798c-1.147,23.357-1.756,46.741-2.675,70.11
		C253.435,246.511,253.751,250.95,251.716,256.272z"/>
	<path class="letter" d="M999.191,257.058c-27.481-28.188-46.527-60.507-71.563-90.314c-1.97,10.462-1.307,18.872-1.366,27.165
		c-0.157,22.219,0.12,44.441,0.365,66.661c0.049,4.429,0.599,8.865,1.131,13.272c1.052,8.719,5.857,14.575,14.047,17.613
		c1.901,0.705,3.857,1.175,5.021,3.695c-15.478-2.977-30.732-7.162-46.649-4.513c0.045-3.421,1.72-3.067,3.014-3.193
		c11.689-1.142,16.048-5.282,17.494-16.973c1.758-14.213,1.132-28.506,1.026-42.764c-0.15-20.101,0.374-40.243-2.065-60.259
		c-1.222-10.029-3.384-11.751-13.527-12.028c-1.866-0.051-3.741-0.082-5.59-0.306c-1.253-0.152-2.142-1.024-2.147-2.347
		c-0.005-1.521,1.33-1.899,2.423-1.955c10.725-0.547,21.463-1.461,32.18-1.283c4.876,0.081,7.69,5.014,10.782,8.421
		c13.36,14.719,26.485,29.651,39.875,44.342c2.875,3.155,5.686,9.051,9.937,7.522c4.062-1.46,2.764-7.802,2.956-12.052
		c0.347-7.692,0.418-15.424,0.052-23.113c-0.636-13.382-2.686-15.455-15.816-17.775c-1.623-0.287-4.394,0.463-3.892-2.433
		c0.365-2.102,2.636-1.303,4.182-1.115c12.481,1.516,24.678-0.161,36.797-3.066c1.807-0.433,4.705-1.812,5.117,1.341
		c0.299,2.293-2.48,2.122-4.243,2.57c-12.832,3.259-15.083,5.296-15.782,18.451c-1.203,22.643-1.685,45.323-2.546,67.985
		C1000.225,245.386,999.712,250.152,999.191,257.058z"/>
	<path class="letter" d="M164.83,267.949c-3.776,3.266-5.96,2.657-7.889,2.58c-14.356-0.568-28.479,0.696-42.293,4.838
		c-1.855,0.556-4.674,2.072-5.309-0.643c-0.631-2.698,2.626-2.518,4.513-3.113c12.254-3.859,13.161-5.295,9.855-17.478
		c-2.756-10.159-5.856-20.225-8.739-30.35c-2.163-7.597-6.965-12.497-14.517-14.823c-6.239-1.921-12.511-3.78-18.61-6.085
		c-3.044-1.151-4.077-0.334-4.913,2.5c-3.375,11.446-7.035,22.808-10.334,34.274c-1.821,6.331-0.562,11.583,6.352,14.296
		c1.539,0.604,4.213,1.14,3.396,3.57c-0.908,2.698-3.309,1.084-4.793,0.503c-10.815-4.234-21.902-7.448-34.312-8.64
		c2.991-4.142,6.292-2.606,8.95-2.586c6.958,0.052,11.524-2.899,14.07-9.361c9.873-25.06,18.62-50.5,25.375-76.58
		c2.47-9.538,1.147-10.417-8.42-10.014c-4.003,0.169-9.332,3.457-11.682-1.276c-0.578-1.164,7.131-1.785,11.006-2.74
		c7.349-1.811,14.078-4.857,20.203-9.355c6.846-5.028,7.02-4.972,9.82,3.385c8.697,25.957,17.273,51.954,25.966,77.912
		c3.121,9.319,6.432,18.573,9.671,27.852C145.816,256.983,149.405,267.387,164.83,267.949z"/>
	<path class="letter" d="M626.259,269.416c-1.925,2.102-4.414,1.174-6.526,1.092c-14.125-0.548-28,0.814-41.589,4.814
		c-1.886,0.555-4.67,2.068-5.382-0.497c-0.77-2.771,2.498-2.594,4.376-3.188c12.512-3.955,13.295-5.23,9.783-18.079
		c-2.775-10.15-5.853-20.217-8.811-30.317c-2.056-7.019-6.452-11.738-13.522-13.96c-6.225-1.956-12.479-3.872-18.562-6.215
		c-3.416-1.316-4.918-0.728-5.949,2.856c-3.102,10.79-6.636,21.456-9.722,32.25c-2.519,8.81-1.576,10.586,7.125,16.279
		c1.109,0.726,2.871,1.188,2.386,2.949c-0.487,1.768-1.997,1.602-3.445,1.102c-11.386-3.931-22.657-8.269-35.855-8.865
		c3.075-4.292,6.317-2.873,8.929-2.852c6.919,0.055,11.522-2.785,14.094-9.292c9.898-25.043,18.635-50.474,25.382-76.547
		c2.53-9.776,1.363-10.488-8.954-10.05c-3.782,0.161-9.499,3.289-10.993-1.201c-0.696-2.089,6.583-1.906,10.219-2.738
		c7.884-1.804,15.32-4.709,21.356-10.005c5.621-4.931,7.286-2.544,9.141,3.144c8.633,26.466,17.517,52.85,26.342,79.254
		c2.299,6.878,4.655,13.737,7.078,20.572C610.159,259.659,610.178,259.653,626.259,269.416z"/>
	<path class="letter" d="M699.42,168.665c-2.626-5.838-1.842-10.846-2.404-15.652c-1.631-13.934-16.248-23.167-29.501-18.663
		c-2.241,0.762-1.946,2.352-1.933,3.883c0.295,35.083-1.007,70.186,0.671,105.244c0.704,14.703,5.932,19.018,20.792,19.905
		c1.867,0.111,3.758,0.021,5.596,0.299c0.762,0.115,1.834,0.831,2.028,1.49c0.389,1.324-0.724,2.199-1.88,2.353
		c-2.307,0.308-4.683,0.658-6.975,0.43c-21.674-2.158-41.587,3.138-60.327,13.805c-0.99,0.563-1.98,2.269-3.752,1.081
		c-1.272-2.321,1.06-2.534,2.2-3.24c16.505-10.231,23.918-24.758,24.289-44.428c0.594-31.543,2.779-63.06,4.512-94.575
		c0.255-4.633-0.557-6.793-5.74-6.365c-8.593,0.709-17.246-0.657-25.867,1.015c-7.202,1.397-10.404,5.553-10.609,12.587
		c-0.248,8.499,1.192,16.767,3.261,24.96c0.675,2.674,1.31,5.358,2.131,8.72c-3.722-0.733-4.487-3.311-5.304-5.432
		c-4.979-12.912-8.653-26.173-10.413-39.944c-0.525-4.108-0.239-6.234,5.088-6.186c31.317,0.28,62.639,0.227,93.957,0.034
		c4.353-0.027,5.734,1.14,5.431,5.467C703.909,146.31,703.3,157.159,699.42,168.665z"/>
	<path class="letter" d="M256.83,289.398c3.176-4.104,7.907-4.276,11.773-5.77c15.64-6.043,17.849-8.987,18.162-25.762
		c0.614-32.982,0.696-65.964-0.001-98.946c-0.015-0.702,0.008-1.405-0.02-2.106c-0.613-15.433-4.401-19.518-19.861-21.328
		c-1.831-0.214-4.375,0.137-4.328-2.321c0.049-2.559,2.822-2.244,4.453-2.046c23.156,2.813,46.203-0.889,69.303-0.949
		c1.935-0.005,5.6-1.647,5.539,1.872c-0.049,2.809-3.55,2.216-5.824,2.31c-1.636,0.068-3.274,0.071-4.909,0.151
		c-13.994,0.684-19.77,5.385-22.726,19.169c-2.997,13.977-4.188,28.227-5.58,42.422c-2.055,20.949-3.616,41.945-3.899,63.005
		c-0.192,14.26,1.7,16.159,15.646,17.055c1.738,0.112,4.434-0.59,4.351,2.078c-0.072,2.289-2.608,2.336-4.478,2.198
		c-17.877-1.323-34.812,2.456-51.224,9.248c-1.252,0.518-2.731,0.567-4.115,0.645C258.534,290.355,257.948,289.877,256.83,289.398z"
		/>
	<path class="letter" d="M704.112,289.65c0.341-2.985,2.825-2.913,4.631-3.633c4.763-1.899,9.593-3.631,14.332-5.587
		c5.669-2.34,8.794-6.647,9.646-12.75c1.364-9.773,1.087-19.613,1.114-29.415c0.076-27.137-0.018-54.278-0.405-81.412
		c-0.221-15.46-4.355-19.587-19.758-21.364c-1.836-0.212-4.511,0.097-4.348-2.28c0.197-2.87,3.188-2.115,5.108-2.086
		c14.24,0.215,28.487,2.391,42.712,0.249c9.078-1.367,18.172-1.356,27.286-1.229c1.584,0.022,4.427-1.097,4.283,1.865
		c-0.105,2.158-2.555,2.318-4.494,2.348c-2.807,0.044-5.626-0.022-8.417,0.22c-11.848,1.026-17.192,5.424-20.102,17.031
		c-3.31,13.205-4.255,26.781-5.673,40.266c-2.372,22.568-4.059,45.194-4.357,67.892c-0.178,13.571,1.875,15.528,15.603,16.39
		c1.733,0.109,4.311-0.641,4.4,2.052c0.063,1.91-2.055,2.345-3.753,2.213c-18.607-1.443-36.187,2.685-53.263,9.67
		c-0.825,0.338-1.853,0.303-2.773,0.244C705.29,290.295,704.718,289.897,704.112,289.65z"/>
	<path class="pink" d="M874.99,210.805c0.079,5.772-0.61,14.139-3.573,22.172c-8.057,21.845-33.618,28.699-51.66,13.856
		c-4.395-3.616-7.973-7.945-10.422-13.079c-9.676-20.275-11.513-41.374-5.308-62.873c3.899-13.509,12.172-23.492,27.224-24.73
		c14.69-1.209,25.758,5.501,33.166,18.047C872.396,177.713,874.353,192.764,874.99,210.805z"/>
	<path class="pink" d="M93.862,156.88c5.909,14.411,10.392,29.062,13.572,44.094c0.714,3.374-1.087,4.926-4.463,3.972
		c-6.936-1.96-13.829-4.072-20.753-6.079c-1.893-0.549-2.763-1.472-2.062-3.558C84.451,182.539,87.653,169.389,93.862,156.88z"/>
	<path class="pink" d="M558.023,156.356c5.058,14.911,9.603,29.571,12.813,44.621c0.717,3.364-1.076,4.936-4.458,3.98
		c-6.942-1.962-13.844-4.07-20.768-6.097c-1.82-0.533-2.832-1.358-2.11-3.522c4.142-12.409,8.2-24.846,12.353-37.252
		C556.03,157.56,556.864,157.254,558.023,156.356z"/>
</svg>
