<svg id="Layer_1" xmlns="http://www.w3.org/2000/svg" viewBox="0 0 500 500">
  <style>
    .st0{fill:#FFFFFF;} .st1{fill:none;stroke:#FFFFFF;stroke-width:5;stroke-miterlimit:10;} .st2{fill:none;stroke:#FFFFFF;stroke-width:2;stroke-miterlimit:10;} .st3{fill:none;stroke:#FFFFFF;stroke-width:11;stroke-miterlimit:10;} .st4{fill:#F43F46;} .st5{fill:#7F1D1F;} .st6{fill:#CC2F32;} .st7{fill:#FCFCFC;}
  </style>
  <path class="st0" d="M252 172c41.907 0 76 34.093 76 76s-34.093 76-76 76-76-34.093-76-76 34.093-76 76-76m0-21c-53.572 0-97 43.428-97 97s43.428 97 97 97 97-43.428 97-97-43.428-97-97-97z"/>
  <path class="st1" d="M197.5 181.5l-65-72"/>
  <path class="st2" d="M325.732 197.392l39.536-25.784"/>
  <path class="st3" d="M252 334v47"/>
  <circle class="st4" cx="96" cy="72" r="56"/>
  <circle class="st5" cx="251.5" cy="429.5" r="50.5"/>
  <circle class="st6" cx="390.5" cy="153.5" r="33.5"/>
  <path class="st0" d="M236.287 404.393l-.33 5.58-.9.12-3.03 15.99-4.56-.36-2.4-15.81-1.32.18-.21-5.4 5.1-.18-.21 5.58h-1.26l2.37 12.96 2.16-12.36-1.83.06-.06-6.78 6.48.42zM244.386 410.003l-1.77.21-.15 8.91 1.23.09.33 5.31-7.05.3.36-6h1.44l.27-9.84-1.92.15.21-4.59 6.69-.45.36 5.91zM255.816 422.003c.06 2.62-1.23 3.93-3.87 3.93-1.24 0-2.17-.38-2.79-1.14l-.12.6-3.57-.39-.36-6.96 4.26-.27V418.432c0 .54.04.9.12 1.08.14.24.42.36.84.36.7 0 1.15-.04 1.35-.12.44-.2.66-.67.66-1.41 0-1.04-.14-1.72-.42-2.04-.44-.46-1.51-.74-3.21-.84-1.46-.08-2.42-.392-2.88-.932-.46-.54-.7-1.568-.72-3.09l-.03-3.6c-.02-1.14.37-2.044 1.17-2.714.8-.67 1.78-1.005 2.94-1.005 1.68 0 2.9.43 3.66 1.29l-.062-.96 2.58.03-.06 7.17-2.4.15-.028-.45c-.02-.72-.182-1.17-.48-1.35-.14-.08-.5-.12-1.08-.12-.88 0-1.45.12-1.71.36-.18.18-.27.56-.27 1.14 0 .78.198 1.28.6 1.5.08.04.66.18 1.74.42.64.1 1.27.2 1.89.3.7.18 1.21.5 1.53.96.42.6.64 1.54.66 2.82l.06 4.623zM270.065 405.083l-.39 5.31-1.5-.03.36 9.42c.06 1.7-.31 2.97-1.11 3.81s-2.09 1.32-3.87 1.44c-1.78.12-3.05-.25-3.81-1.11-.7-.76-1.05-2.03-1.05-3.81l-.09-8.19-1.41.03-.3-5.43 5.85.06.27 5.73-1.14-.03.33 4.89c.08 1.24.5 1.86 1.26 1.86 1.18 0 1.77-.53 1.77-1.59l-.12-6.81-1.32.12-.33-6.42 6.6.75zM283.565 424.553l-5.22-.24-.33-4.08h1.26l-.27-2.73h-2.94l-.42 4.32h1.29l.12 3.9-6.63.24.24-4.14h1.08l1.92-12.75h-1.2l-.18-4.8 9.84.655-.06 4.563h-1.2l1.65 10.74h1.05v4.323zm-4.95-9.66l-1.05-4.65-.99 4.65h2.04zM295.535 416.572l-.21 8.76-11.07-.21-.12-6.54h1.44l.09-8.79-1.26.09-.15-5.79 7.02-.24-.21 5.13-2.16.24.18 10.83 3.54-.15.03-3.06 2.88-.27zM321.665 409.793l-.24 10.38c-.04 2.12-.57 3.524-1.59 4.215-1.02.69-3.03 1.085-6.03 1.185l-4.14.15-.06-5.13 1.56-.15-.06-8.85-1.56.09-.39-7.02 4.89-.27c.54-.04 1.04-.06 1.5-.06 2.32 0 3.93.414 4.83 1.244.9.83 1.33 2.236 1.29 4.216zm-3.93 4.92c0-1.14-.63-1.72-1.89-1.74l-2.07-.06.06 8.73 1.95-.09c.84-.04 1.38-.17 1.62-.39.18-.2.28-.642.3-1.32l.03-5.13zM333.935 404.123l-.18 8.43-2.55.09.06-2.34h-4.83v3.6l4.92-.09-.12 2.58-3.51-.15-.12 3.81 2.79.06-.03-1.858 3.54-.18-.15 7.65-11.16.27-.12-5.19 1.172.03.24-9.84-1.5.21-.21-6.57 11.758-.512zM347.524 404.692l-.21 5.4-1.32-.18-2.4 15.81-4.53.36-3.03-15.99-.93-.12-.33-5.58 6.48-.42-.03 6.78-1.86-.06 2.16 12.36 2.37-12.96h-1.26l-.21-5.58 5.1.18zM359.523 404.123l-.18 8.43-2.55.09.06-2.34h-4.83v3.6l4.92-.09-.12 2.58-3.51-.15-.12 3.81 2.79.06-.03-1.858 3.54-.18-.15 7.65-11.16.27-.12-5.19 1.172.03.24-9.84-1.5.21-.21-6.57 11.758-.512zM371.583 416.572l-.21 8.76-11.07-.21-.12-6.54h1.44l.09-8.79-1.26.09-.15-5.79 7.02-.24-.21 5.13-2.16.24.18 10.83 3.54-.15.03-3.06 2.88-.27zM383.554 420.713c.02 1.84-.37 3.17-1.17 3.99-.84.88-2.22 1.29-4.14 1.23-2.18-.06-3.642-.59-4.38-1.59-.58-.8-.87-2.2-.87-4.2l-.03-10.74c0-1.72.34-2.97 1.02-3.75.76-.88 2.08-1.37 3.96-1.47 2.2-.12 3.69.23 4.47 1.05.64.7.97 2.03.99 3.99l.15 11.49zm-3.36-8.46c.02-.7-.16-1.2-.54-1.5-.28-.22-.75-.37-1.41-.45-1-.12-1.51.52-1.53 1.92l-.12 5.79c0 .76.135 1.33.404 1.71.27.38.686.55 1.245.51.76-.06 1.25-.225 1.47-.495.22-.27.34-.805.36-1.604l.12-5.88zM395.764 408.413l-.09 5.16c-.04 2.32-1.42 3.57-4.14 3.75-.06.02-.432.08-1.11.18-.68.1-1.07.15-1.17.15l.18 2.58 1.89.15-.18 5.04-6.96.3-.09-4.95 1.71.03.12-10.68-1.74-.03-.24-5.312 4.92-.39c.58-.04 1.13-.06 1.65-.06 1.84 0 3.185.32 4.034.96.85.643 1.255 1.683 1.216 3.123zm-3.99 2.91c.04-.88-.28-1.32-.96-1.32-.16 0-.36.02-.602.06l-.96.12.18 4.74h.78c.96 0 1.46-.59 1.5-1.77l.06-1.83zM414.333 420.022l-.03 5.7-6.36-.42-.27-5.58 1.62-.06-.57-8.73-2.76 9.99-5.25-8.82v7.71l2.25.09.18 5.82-6.45-.15-.06-5.43 1.47-.21.18-9.99-1.68.12-.03-5.79h3.03l5.7 10.53 2.25-10.53 6.75.06v5.91l-1.53-.06.12 9.66 1.44.18zM426.572 404.123l-.18 8.43-2.55.09.06-2.34h-4.83v3.6l4.92-.09-.12 2.58-3.51-.15-.12 3.81 2.79.06-.03-1.858 3.54-.18-.15 7.65-11.16.27-.12-5.19 1.172.03.24-9.84-1.5.21-.21-6.57 11.758-.512zM442.292 404.902l-.24 5.37-1.47-.18-.21 14.1-4.02.3-4.38-15.39v10.5l1.5.09-.27 6.03h-5.61l-.24-5.28 1.77-.03-.09-10.32-1.17-.15-.27-5.55 6.06.21 3.99 14.37.21-8.67-1.44-.21-.12-4.68 6-.51zM455.522 404.513l-.06 9.51-2.61-.27.03-3.12-2.04.27.15 11.55 1.8.03-.15 3.54-6.69-.24-.12-3.66h1.44l.03-11.64-1.8-.03-.03 2.34-2.52-.21-.12-7.41 12.69-.66z"/>
  <g>
    <path class="st0" d="M91.506 48.216l-.384 6.84-3.672-.12.096-.72c.016-.176.024-.344.024-.504 0-.848-.352-1.272-1.056-1.272-.784 0-1.144.592-1.08 1.776l.24 5.112c.032.656.112 1.104.24 1.344.16.288.44.432.84.432.768 0 1.112-.592 1.032-1.776l-.192-2.568 3.744-.12-.312 3.744c-.128 1.44-.496 2.48-1.104 3.12-.656.688-1.696 1.04-3.12 1.056-1.536 0-2.625-.336-3.264-1.008-.608-.624-.936-1.68-.984-3.168l-.192-7.848c-.032-1.424.184-2.476.648-3.156.464-.68 1.248-1.02 2.352-1.02.72 0 1.144.008 1.272.024.416.064.768.256 1.056.576v-.912l3.816.168z"/>
    <path class="st0" d="M102.45 48.288l-.168 4.32-1.272-.12.144 8.688.72-.072-.048 3.576-4.56-.168-.12-3.456 1.416.12V59.16l-3-.144.072 2.184.888-.024v3.936l-4.992.192-.144-4.056 1.608-.072-.312-8.568h-1.128l-.144-4.392 5.112-.168-.12 3.648-.72.048.096 5.304 2.328.216.096-4.656-.624.072-.24-4.632 5.112.24zM113.562 64.176l-4.176-.192-.264-3.264h1.008l-.216-2.184h-2.352l-.336 3.456h1.032l.096 3.12-5.304.192.192-3.312h.864l1.536-10.2h-.96l-.144-3.84 7.872.525-.048 3.65h-.96l1.32 8.593h.84v3.456zm-3.96-7.728l-.84-3.72-.792 3.72h1.632zM125.49 61.056c0 1.424-.176 2.38-.528 2.868-.352.488-1.04.732-2.064.732-1.6 0-2.4-.912-2.4-2.736 0-.464.027-.952.084-1.464.056-.512.084-.936.084-1.272 0-1.056-.44-1.543-1.32-1.464l-1.128.12.096 3.12 1.08.072-.072 4.248-4.968.312-.12-3.696 1.464-.216-.24-8.568-1.176.072-.144-5.088 3.96-.048c2.064-.032 3.48.144 4.248.528.928.464 1.36 1.36 1.296 2.688l-.12 2.64c-.032.736-.212 1.264-.54 1.584-.328.32-.948.56-1.86.72 1.36 0 2.064.776 2.112 2.328 0 .16-.016.384-.048.672-.032.288-.048.472-.048.552 0 .24.184.4.552.48.24.048.392-.032.456-.24.032-.128.048-.448.048-.96v-.48l1.272-.096c.015.256.024 1.12.024 2.592zm-4.944-7.872c.016-.32-.092-.576-.324-.768-.232-.192-.532-.272-.9-.24l-1.344.096.144 2.688 1.152-.024c.48 0 .795-.056.948-.168.152-.11.244-.4.276-.864l.048-.72zM136.674 64.176l-4.176-.192-.264-3.264h1.008l-.216-2.184h-2.352l-.336 3.456h1.032l.096 3.12-5.304.192.192-3.312h.864l1.536-10.2h-.96l-.144-3.84 7.872.525-.048 3.65h-.96l1.32 8.593h.84v3.456zm-3.96-7.728l-.84-3.72-.792 3.72h1.632zM146.417 48.216l-.384 6.84-3.672-.12.097-.72c.016-.176.024-.344.024-.504 0-.848-.35-1.272-1.055-1.272-.784 0-1.144.592-1.08 1.776l.24 5.112c.032.656.112 1.104.24 1.344.16.288.44.432.84.432.768 0 1.112-.592 1.032-1.776l-.192-2.568 3.744-.12-.313 3.744c-.128 1.44-.496 2.48-1.104 3.12-.656.688-1.696 1.04-3.12 1.056-1.536 0-2.625-.336-3.264-1.008-.61-.624-.937-1.68-.985-3.168l-.192-7.848c-.032-1.424.184-2.476.648-3.156.465-.68 1.25-1.02 2.353-1.02.72 0 1.144.008 1.272.024.416.064.768.256 1.056.576v-.912l3.817.168zM156.76 48.144l-.047 7.608-2.088-.216.024-2.496-1.633.216.12 9.24 1.44.024-.12 2.832-5.352-.192-.096-2.928h1.15l.025-9.312-1.44-.024-.024 1.872-2.015-.168-.096-5.928 10.15-.528zM166.577 47.832l-.144 6.744-2.04.072.048-1.872h-3.863v2.88l3.936-.072-.096 2.064-2.808-.12-.097 3.048 2.232.048-.024-1.488 2.833-.144-.12 6.12-8.928.216-.096-4.152.935.024.192-7.872-1.2.168-.168-5.256 9.407-.408zM178.577 61.056c0 1.424-.176 2.38-.528 2.868-.353.488-1.042.732-2.065.732-1.6 0-2.4-.912-2.4-2.736 0-.464.027-.952.084-1.464.055-.512.083-.936.083-1.272 0-1.056-.44-1.543-1.32-1.464l-1.128.12.096 3.12 1.08.072-.07 4.248-4.97.312-.12-3.696 1.465-.216-.24-8.568-1.176.072-.145-5.088 3.96-.048c2.064-.032 3.48.144 4.248.528.928.464 1.36 1.36 1.296 2.688l-.12 2.64c-.033.736-.213 1.264-.54 1.584-.33.32-.95.56-1.86.72 1.36 0 2.063.776 2.11 2.328 0 .16-.015.384-.047.672-.032.288-.048.472-.048.552 0 .24.184.4.552.48.24.048.392-.032.456-.24.032-.128.048-.448.048-.96v-.48l1.273-.096c.015.256.024 1.12.024 2.592zm-4.944-7.872c.016-.32-.092-.576-.324-.768-.233-.192-.533-.272-.9-.24l-1.345.096.144 2.688 1.15-.024c.48 0 .796-.056.95-.168.15-.11.243-.4.275-.864l.048-.72zM100.89 87.648c.033 1.04-.22 1.752-.755 2.136-.536.384-1.5.536-2.892.456l-2.352-.144.193-3.36.744.048.024-4.248-.455-.048-.024.6-.695-.096-.096 6.768-1.92.144-2.113-7.392v5.04l.72.048-.12 2.904h-2.712l-.048-1.104-2.136-.12-.167-1.944h.624l-.144-1.32H85.17l-.216 2.088h.624l.072 1.872-3.192.12.096-1.992h.528l.912-6.144h-.576l-.072-2.304 4.728.312-.048 2.208h-.576l.816 5.16h.504v.624l.408-.024-.048-4.944-.552-.072-.144-2.664 2.904.096 1.944 6.912.096-4.176-.696-.096-.048-2.232 2.496-.216v-.552l1.992.072c1.44.048 2.404.236 2.892.564.488.328.748 1.004.78 2.028l.097 4.992zm-14.495-2.88l-.528-2.232-.456 2.232h.985zm12.624.504l-.025-2.448c0-.336-.052-.552-.156-.648-.105-.096-.357-.16-.757-.192l-.936-.048-.048 4.2 1.007-.024c.607-.016.912-.296.912-.84zM116.946 86.928l-.288 6.984-8.928.216-.096-4.152.936.024.192-7.872-1.2.168-.168-5.256 9.408-.408-.144 6.744-2.04.072.048-2.016-1.872-.024v3.024h1.944l-.096 2.016-2.808-.12-.096 3.048 2.232.048-.12-2.52 3.096.024zM129.378 77.256l-.192 4.296-1.176-.144-.168 11.28-3.216.24-3.504-12.312v8.4l1.2.072-.216 4.824h-4.488l-.192-4.224 1.416-.024-.072-8.256-.936-.12-.216-4.44 4.848.168 3.192 11.496.168-6.936-1.152-.168-.096-3.744 4.8-.408zM140.106 77.088l-.168 4.32-1.056-.144-1.92 12.648-3.624.288-2.424-12.792-.744-.096-.264-4.464 5.184-.336-.024 5.424-1.488-.048 1.728 9.888 1.896-10.368h-1.008l-.168-4.464 4.08.144zM146.585 81.336l-1.416.168-.12 7.128.983.072.264 4.248-5.64.24.288-4.8h1.152l.216-7.872-1.536.12.168-3.672 5.352-.36.288 4.728zM158.513 89.856c0 1.424-.176 2.38-.528 2.868-.352.488-1.04.732-2.064.732-1.6 0-2.4-.912-2.4-2.736 0-.464.028-.952.085-1.464.056-.512.084-.936.084-1.272 0-1.056-.44-1.543-1.32-1.464l-1.13.12.097 3.12 1.08.072-.072 4.248-4.968.312-.12-3.696 1.464-.216-.24-8.568-1.175.072-.144-5.088 3.96-.048c2.065-.032 3.48.144 4.25.528.927.464 1.36 1.36 1.295 2.688l-.12 2.64c-.032.736-.212 1.264-.54 1.584-.328.32-.948.56-1.86.72 1.36 0 2.064.776 2.112 2.328 0 .16-.016.384-.048.672-.033.288-.05.472-.05.552 0 .24.185.4.553.48.24.048.392-.032.456-.24.03-.128.047-.448.047-.96v-.48l1.272-.096c.015.256.023 1.12.023 2.592zm-4.944-7.872c.015-.32-.093-.576-.325-.768-.232-.192-.532-.272-.9-.24l-1.344.096.145 2.688 1.152-.024c.48 0 .795-.056.948-.168.152-.11.244-.4.276-.864l.05-.72zM168.04 89.904c.017 1.472-.295 2.536-.935 3.192-.672.704-1.776 1.032-3.312.984-1.744-.048-2.913-.472-3.504-1.272-.465-.64-.697-1.76-.697-3.36l-.024-8.592c0-1.375.27-2.376.815-3 .608-.704 1.664-1.096 3.168-1.176 1.76-.096 2.952.184 3.576.84.51.56.775 1.624.79 3.192l.12 9.192zm-2.687-6.768c.016-.56-.128-.96-.432-1.2-.224-.176-.6-.296-1.127-.36-.8-.096-1.208.416-1.224 1.536l-.097 4.632c0 .608.108 1.064.324 1.368.216.304.548.44.996.408.608-.048 1-.18 1.176-.396.175-.216.27-.644.287-1.284l.096-4.704zM180.52 77.256l-.19 4.296-1.177-.144-.168 11.28-3.216.24-3.505-12.312v8.4l1.2.072-.216 4.824h-4.49l-.19-4.224 1.415-.024-.072-8.256-.936-.12-.216-4.44 4.85.168 3.19 11.496.17-6.936-1.153-.168-.096-3.744 4.8-.408zM195.256 89.352l-.024 4.56-5.088-.336-.216-4.464 1.296-.048-.456-6.984-2.208 7.992-4.2-7.056v6.168l1.8.072.144 4.656-5.16-.12-.048-4.344 1.176-.168.144-7.992-1.344.096-.024-4.632h2.424l4.56 8.424 1.8-8.424 5.4.048v4.73l-1.224-.05.096 7.73 1.152.142zM205.048 76.632l-.144 6.744-2.04.072.048-1.872h-3.864v2.88l3.936-.072-.096 2.064-2.808-.12-.096 3.048 2.232.048-.024-1.488 2.832-.144-.12 6.12-8.928.216-.096-4.152.936.024.192-7.872-1.2.168-.168-5.256 9.408-.408zM217.625 77.256l-.192 4.296-1.176-.144-.168 11.28-3.217.24-3.504-12.312v8.4l1.2.072-.217 4.824h-4.488l-.192-4.224 1.416-.024-.073-8.256-.936-.12-.215-4.44 4.848.168 3.192 11.496.168-6.936-1.152-.168-.095-3.744 4.8-.408zM228.208 76.944l-.048 7.608-2.088-.216.024-2.496-1.632.216.12 9.24 1.44.024-.12 2.832-5.352-.192-.096-2.928h1.152l.024-9.312-1.44-.024-.024 1.872-2.016-.168-.096-5.928 10.152-.528zM92.083 109.968l-.192 8.304c-.03 1.696-.455 2.82-1.27 3.372-.817.552-2.425.868-4.825.948l-3.312.12-.048-4.104 1.248-.12-.048-7.08-1.248.072-.312-5.616 3.912-.216c.432-.032.832-.048 1.2-.048 1.856 0 3.144.332 3.864.996.72.664 1.064 1.788 1.033 3.372zm-3.145 3.936c0-.912-.504-1.376-1.512-1.392l-1.656-.048.048 6.984 1.56-.072c.672-.032 1.104-.136 1.296-.312.144-.16.224-.512.24-1.056l.024-4.104zM101.898 105.432l-.144 6.744-2.04.072.048-1.872h-3.864v2.88l3.936-.072-.096 2.064-2.808-.12-.096 3.048 2.232.048-.024-1.488 2.832-.144-.12 6.12-8.928.216-.096-4.152.936.024.192-7.872-1.2.168-.168-5.256 9.408-.408zM111.114 119.736c.048 2.096-.984 3.144-3.096 3.144-.992 0-1.736-.304-2.232-.912l-.096.48-2.856-.312-.288-5.568 3.408-.216v.528c0 .432.032.72.096.864.112.192.336.288.672.288.56 0 .92-.032 1.08-.096.352-.16.528-.536.528-1.128 0-.832-.112-1.376-.336-1.632-.352-.368-1.208-.592-2.568-.672-1.168-.064-1.936-.312-2.304-.744-.368-.432-.56-1.256-.576-2.472l-.024-2.88c-.016-.912.296-1.636.936-2.172.64-.536 1.424-.804 2.352-.804 1.344 0 2.32.344 2.928 1.032l-.048-.768 2.064.024-.048 5.736-1.92.12-.024-.36c-.016-.576-.144-.936-.384-1.08-.112-.063-.4-.096-.864-.096-.705 0-1.16.096-1.368.288-.144.144-.216.448-.216.912 0 .624.16 1.024.48 1.2.063.032.528.144 1.392.336.512.08 1.016.16 1.512.24.56.144.968.4 1.224.768.336.48.512 1.232.528 2.256l.048 3.696zM117.762 110.136l-1.416.168-.12 7.128.984.072.264 4.248-5.64.24.288-4.8h1.152l.216-7.872-1.536.12.168-3.672 5.352-.36.288 4.728zM127.65 105.72l-.144 6.168-2.904-.168v-.84c0-.304-.2-.488-.6-.552-.096-.016-.52-.024-1.272-.024-.512 0-.888.128-1.128.384-.32.336-.48.976-.48 1.92V117c0 1.328.136 2.152.408 2.472.144.16.504.24 1.08.24.672 0 1.008-.496 1.008-1.488v-.432h-1.224l-.048-2.304 5.184-.312-.096 2.616h-.936l-.168 5.448-2.088.024-.024-1.056c-.832.624-1.672.936-2.52.936-1.185 0-2.032-.352-2.544-1.056-.464-.64-.696-1.68-.696-3.12v-9.072c0-1.36.344-2.408 1.032-3.144.656-.688 1.568-1.032 2.736-1.032.576 0 1.167.072 1.776.216.752.192 1.272.448 1.56.768v-.935l2.088-.05zM140.202 106.056l-.192 4.296-1.176-.144-.168 11.28-3.216.24-3.504-12.312v8.4l1.2.072-.216 4.824h-4.488l-.192-4.224 1.416-.024-.072-8.256-.936-.12-.216-4.44 4.848.168 3.192 11.496.168-6.936-1.152-.168-.096-3.744 4.8-.408z"/>
  </g>
  <g>
    <path class="st7" d="M354.507 165.216l-.384 6.84-3.672-.12.097-.72c.016-.176.024-.344.024-.504 0-.848-.352-1.272-1.056-1.272-.784 0-1.144.592-1.08 1.776l.24 5.112c.032.656.112 1.104.24 1.344.16.288.44.432.84.432.77 0 1.112-.592 1.032-1.776l-.192-2.568 3.744-.12-.312 3.744c-.13 1.44-.496 2.48-1.104 3.12-.656.688-1.696 1.04-3.12 1.056-1.536 0-2.624-.336-3.264-1.008-.608-.624-.937-1.68-.984-3.168l-.19-7.848c-.033-1.424.183-2.476.646-3.156s1.248-1.02 2.353-1.02c.72 0 1.144.008 1.27.024.417.064.77.256 1.058.576v-.912l3.817.168zM363.65 178.104c.016 1.472-.296 2.536-.936 3.192-.672.704-1.776 1.032-3.313.984-1.743-.048-2.91-.472-3.503-1.272-.464-.64-.696-1.76-.696-3.36l-.022-8.592c0-1.375.27-2.376.816-3 .607-.704 1.663-1.096 3.168-1.176 1.76-.096 2.95.184 3.575.84.513.56.776 1.624.792 3.192l.12 9.192zm-2.687-6.768c.016-.56-.13-.96-.433-1.2-.224-.176-.6-.296-1.128-.36-.8-.096-1.208.416-1.224 1.536l-.096 4.632c0 .608.107 1.064.323 1.368.217.304.548.44.996.408.61-.048 1-.18 1.178-.396.176-.216.27-.644.287-1.284l.098-4.704zM376.13 165.456l-.19 4.296-1.177-.144-.168 11.28-3.217.24-3.504-12.312v8.4l1.2.072-.216 4.824h-4.488l-.19-4.224 1.415-.024-.072-8.256-.937-.12-.216-4.44 4.85.168 3.19 11.496.168-6.936-1.15-.168-.098-3.744 4.8-.408zM385.802 165.216l-.384 6.84-3.672-.12.096-.72c.016-.176.024-.344.024-.504 0-.848-.353-1.272-1.057-1.272-.785 0-1.145.592-1.08 1.776l.24 5.112c.03.656.11 1.104.24 1.344.16.288.438.432.84.432.768 0 1.11-.592 1.03-1.776l-.19-2.568 3.743-.12-.312 3.744c-.128 1.44-.495 2.48-1.103 3.12-.656.688-1.696 1.04-3.12 1.056-1.536 0-2.624-.336-3.264-1.008-.608-.624-.937-1.68-.984-3.168l-.192-7.848c-.032-1.424.184-2.476.647-3.156s1.248-1.02 2.353-1.02c.72 0 1.144.008 1.27.024.417.064.77.256 1.058.576v-.912l3.816.168z"/>
    <path class="st7" d="M395.21 164.832l-.145 6.744-2.04.072.048-1.872h-3.863v2.88l3.936-.072-.096 2.064-2.81-.12-.095 3.048 2.232.048-.024-1.488 2.832-.144-.12 6.12-8.928.216-.096-4.152.937.024.192-7.872-1.2.168-.17-5.256 9.41-.408zM405.073 168.264l-.07 4.128c-.033 1.856-1.138 2.856-3.314 3-.05.016-.345.064-.89.144-.543.08-.855.12-.936.12l.145 2.064 1.51.12-.143 4.032-5.568.24-.073-3.96 1.368.024.096-8.544-1.39-.024-.193-4.248 3.937-.312c.464-.032.903-.048 1.32-.048 1.472 0 2.547.256 3.228.768.68.512 1.003 1.344.97 2.496zm-3.19 2.328c.03-.704-.226-1.056-.77-1.056-.128 0-.288.016-.48.048l-.768.096.145 3.792h.624c.768 0 1.168-.472 1.2-1.416l.048-1.464zM415.777 165.144l-.048 7.608-2.09-.216.024-2.496-1.632.216.12 9.24 1.44.024-.12 2.832-5.353-.192-.097-2.928h1.152l.023-9.312-1.44-.024-.023 1.872-2.016-.168-.098-5.928 10.155-.528zM440.232 175.848c.032 1.04-.22 1.752-.756 2.136-.536.384-1.5.536-2.892.456l-2.353-.144.193-3.36.744.048.023-4.248-.456-.048-.023.6-.695-.096-.096 6.768-1.92.144-2.113-7.392v5.04l.72.048-.12 2.904h-2.712l-.048-1.104-2.136-.12-.167-1.944h.624l-.144-1.32h-1.393l-.216 2.088h.624l.072 1.872-3.192.12.096-1.992h.528l.912-6.144h-.576l-.072-2.304 4.73.312-.05 2.208h-.575l.816 5.16h.504v.624l.408-.024-.048-4.944-.552-.072-.145-2.664 2.904.096 1.944 6.912.097-4.176-.696-.096-.047-2.232 2.496-.216v-.552l1.99.072c1.44.048 2.404.236 2.893.564.488.328.748 1.004.78 2.028l.1 4.992zm-14.496-2.88l-.527-2.232-.457 2.232h.983zm12.624.504l-.023-2.448c0-.336-.053-.552-.156-.648-.103-.096-.355-.16-.755-.192l-.936-.048-.05 4.2 1.01-.024c.607-.016.91-.296.91-.84zM354.003 203.856l-.096 4.08c-.032 2.096-1.064 3.144-3.097 3.144-.992 0-1.735-.304-2.23-.912l-.097.48-2.856-.312-.288-5.568 3.407-.216v.528c0 .432.032.72.096.864.112.192.336.288.672.288.4 0 .77-.108 1.104-.324.335-.216.503-.516.503-.9 0-.88-.104-1.44-.313-1.68-.368-.416-1.23-.624-2.592-.624-1.168 0-1.943-.24-2.328-.72-.352-.432-.536-1.264-.552-2.496l-.023-2.88c-.017-.912.296-1.636.936-2.172.64-.536 1.425-.804 2.353-.804 1.345 0 2.32.344 2.93 1.032l-.05-.768 2.064.024-.048 5.736-1.92.12-.025-.36c-.016-.576-.144-.936-.384-1.08-.11-.063-.4-.096-.863-.096-.704 0-1.16.096-1.367.288-.145.144-.217.448-.217.912 0 .624.16 1.024.48 1.2.063.032.528.144 1.392.336 1.488.32 2.368.568 2.64.744.528.336.784 1.048.768 2.136zM364.61 193.944l-.047 7.608-2.088-.216.023-2.496-1.632.216.12 9.24 1.44.024-.12 2.832-5.353-.192-.096-2.928h1.152l.022-9.312-1.44-.024-.023 1.872-2.017-.168-.097-5.928 10.155-.528zM376.06 194.4l-.313 4.248-1.2-.024.288 7.536c.05 1.36-.248 2.376-.888 3.048s-1.672 1.056-3.096 1.152c-1.424.096-2.44-.2-3.047-.888-.56-.608-.84-1.624-.84-3.048l-.072-6.552-1.127.024-.24-4.344 4.68.048.216 4.584-.912-.024.264 3.912c.063.992.4 1.488 1.008 1.488.944 0 1.416-.424 1.416-1.272l-.096-5.448-1.057.096-.264-5.136 5.28.6zM386.067 206.544c.032 1.6-.313 2.73-1.032 3.384-.72.656-2.008.984-3.864.984-.367 0-.767-.016-1.198-.048l-3.912-.216.312-5.616 1.248.072.048-7.056-1.248-.12.05-4.128 3.31.12c2.4.08 4.01.396 4.825.948.815.552 1.24 1.676 1.27 3.372l.192 8.304zm-3.143-1.8l-.024-4.128c-.017-.544-.096-.888-.24-1.032-.19-.176-.624-.288-1.296-.336l-1.56-.072-.05 6.984 1.657-.024c1.01-.032 1.514-.496 1.514-1.392zM392.764 198.336l-1.416.168-.12 7.128.983.072.266 4.248-5.64.24.287-4.8h1.152l.216-7.872-1.535.12.168-3.672 5.353-.36.288 4.728zM402.22 206.904c.015 1.472-.297 2.536-.937 3.192-.672.704-1.776 1.032-3.313.984-1.744-.048-2.912-.472-3.504-1.272-.464-.64-.696-1.76-.696-3.36l-.023-8.592c0-1.375.27-2.376.816-3 .607-.704 1.663-1.096 3.168-1.176 1.76-.096 2.952.184 3.576.84.513.56.776 1.624.792 3.192l.12 9.192zm-2.69-6.768c.017-.56-.128-.96-.432-1.2-.224-.176-.6-.296-1.128-.36-.8-.096-1.208.416-1.224 1.536l-.096 4.632c0 .608.107 1.064.323 1.368.217.304.548.44.996.408.607-.048 1-.18 1.176-.396.176-.216.27-.644.287-1.284l.098-4.704zM418.538 211.104l-5.304-.192.12-3.12h1.03l-.335-3.456h-2.353l-.24 2.184h1.032l-.265 3.264-4.2.192v-3.456h.84l1.344-8.592h-.96l-.073-3.65 7.896-.526-.145 3.84h-.96l1.536 10.2h.864l.17 3.312zm-4.896-8.856l-.792-3.72-.84 3.72h1.632zM430.467 206.856c0 1.424-.177 2.38-.528 2.868-.354.488-1.04.732-2.065.732-1.6 0-2.4-.912-2.4-2.736 0-.464.028-.952.085-1.464.056-.512.084-.936.084-1.272 0-1.056-.44-1.543-1.32-1.464l-1.128.12.096 3.12 1.08.072-.07 4.248-4.97.312-.12-3.696 1.465-.216-.24-8.568-1.176.072-.144-5.088 3.96-.048c2.064-.032 3.48.144 4.248.528.928.464 1.36 1.36 1.296 2.688l-.12 2.64c-.032.736-.212 1.264-.54 1.584-.328.32-.947.56-1.86.72 1.36 0 2.064.776 2.112 2.328 0 .16-.016.384-.048.672-.032.288-.048.472-.048.552 0 .24.184.4.552.48.24.048.393-.032.456-.24.032-.128.048-.448.048-.96v-.48l1.272-.096c.014.256.023 1.12.023 2.592zm-4.945-7.872c.016-.32-.093-.576-.324-.768-.232-.192-.532-.272-.9-.24l-1.344.096.145 2.688 1.15-.024c.48 0 .796-.056.948-.168.152-.11.244-.4.276-.864l.048-.72zM441.194 193.944l-.048 7.608-2.088-.216.023-2.496-1.63.216.12 9.24 1.44.024-.12 2.832-5.354-.192-.096-2.928h1.152l.023-9.312-1.44-.024-.023 1.872-2.016-.168-.097-5.928 10.154-.528z"/>
  </g>
</svg>
