<svg id="Layer_1" xmlns="http://www.w3.org/2000/svg" viewBox="0 0 500 500">
  <style>
    .st0{fill:#DAE5E8;} .st1{fill:#333333;} .st2{fill:#262626;} .st3{fill:#93A1A5;} .st4{fill:#525454;} .st5{fill:#393A3A;} .st6{fill:#00DBFF;} .st7{fill:#565656;} .st8{fill:#F5FFF6;} .st9{fill:#FCF8FF;} .st10{fill:#FFFBE9;} .st11{fill:#EEFFFF;} .st12{fill:#C5FFE2;} .st13{fill:#FFF2D2;} .st14{fill:#FFA233;} .st15{fill:#FFD283;} .st16{fill:#FFEB99;} .st17{fill:#FFFFFF;} .st18{fill:#00FF85;} .st19{fill:#C2FFAE;} .st20{fill:#ADF48C;} .st21{fill:#F5FFF9;} .st22{fill:#E6F4FF;} .st23{fill:#7F7F7F;} .st24{fill:#D7DDDD;} .st25{fill:#E4F2E5;} .st26{opacity:0.5;fill:#FFFFF3;} .st27{fill:#FFFFF3;}
  </style>
  <path class="st0" d="M330 77.015H175c-6.6 0-12 5.4-12 12V361c0 6.6 5.4 12 12 12h155c6.6 0 12-5.4 12-12V89.015c0-6.6-5.4-12-12-12zM332 335c0 6.6-5.4 12-12 12H182c-6.6 0-12-5.4-12-12v-26c0-6.6 5.4-12 12-12h138c6.6 0 12 5.4 12 12v26z"/>
  <path class="st1" d="M335 73H169c-6.6 0-12 5.4-12 12v337c0 6.6 5.4 12 12 12h166c6.6 0 12-5.4 12-12V85c0-6.6-5.4-12-12-12zm7 288c0 6.6-5.4 12-12 12H175c-6.6 0-12-5.4-12-12V89.015c0-6.6 5.4-12 12-12h155c6.6 0 12 5.4 12 12V361z"/>
  <path class="st2" d="M330 77.015H175c-6.6 0-12 5.4-12 12V361c0 6.6 5.4 12 12 12h155c6.6 0 12-5.4 12-12V89.015c0-6.6-5.4-12-12-12z"/>
  <circle class="st3" cx="250.5" cy="401.5" r="19.5"/>
  <circle class="st4" cx="250.5" cy="401.5" r="18.5"/>
  <circle cx="250.5" cy="401.5" r="13.5"/>
  <circle class="st5" cx="250.5" cy="401.5" r="11.5"/>
  <path class="st6" d="M163.5 361c0 6.6 5.4 12 12 12h155c6.6 0 12-5.4 12-12V115h-179v246z"/>
  <path class="st7" d="M330 79.333H175c-6.6 0-12 5.07-12 11.268V115h179V90.6c0-6.196-5.4-11.267-12-11.267z"/>
  <path class="st8" d="M321 122H183c-6.6 0-12 5.184-12 11.52v51.84c0 6.336 5.4 11.52 12 11.52h138c6.6 0 12-5.184 12-11.52v-51.84c0-6.336-5.4-11.52-12-11.52z"/>
  <path class="st9" d="M321 206.48H183c-6.6 0-12 5.184-12 11.52v16.32c0 6.336 5.4 11.52 12 11.52h138c6.6 0 12-5.184 12-11.52V218c0-6.336-5.4-11.52-12-11.52z"/>
  <path class="st10" d="M320 256.4H182c-6.6 0-12 5.184-12 11.52 0 6.336 5.4 11.52 12 11.52h138c6.6 0 12-5.184 12-11.52 0-6.336-5.4-11.52-12-11.52z"/>
  <path class="st11" d="M320 290H182c-6.6 0-12 5.184-12 11.52v24.96c0 6.336 5.4 11.52 12 11.52h138c6.6 0 12-5.184 12-11.52v-24.96c0-6.336-5.4-11.52-12-11.52z"/>
  <path class="st12" d="M192.188 367h-13.375c-2.647 0-4.813-2.166-4.813-4.813v-13.375c0-2.647 2.166-4.813 4.813-4.813h13.375c2.647 0 4.813 2.165 4.813 4.812v13.375c0 2.647-2.166 4.813-4.812 4.813z"/>
  <path class="st13" d="M325.188 367h-13.375c-2.647 0-4.813-2.166-4.813-4.813v-13.375c0-2.647 2.166-4.813 4.813-4.813h13.375c2.647 0 4.813 2.165 4.813 4.812v13.375c0 2.647-2.166 4.813-4.812 4.813z"/>
  <path id="ChatBG" class="st14" d="M324.188 366h-11.375c-2.647 0-4.813-2.166-4.813-4.813v-11.375c0-2.647 2.166-4.813 4.813-4.813h11.375c2.647 0 4.813 2.165 4.813 4.812v11.375c0 2.647-2.166 4.813-4.812 4.813z"/>
  <path class="st15" d="M318.5 366c-5.775 0-10.5-4.725-10.5-10.5s4.725-10.5 10.5-10.5 10.5 4.725 10.5 10.5-4.725 10.5-10.5 10.5z"/>
  <ellipse class="st16" cx="318.5" cy="355.5" rx="7.5" ry="10.5"/>
  <path class="st15" d="M323.083 359.6h-4.167c-1.054 0-1.917-.863-1.917-1.917v-2.567c0-1.054.86-1.917 1.916-1.917h4.167c1.054 0 1.917.86 1.917 1.916v2.567c0 1.054-.862 1.917-1.917 1.917zM321.8 359.6l1.6 2.4v-2.4z"/>
  <path class="st17" d="M319 358h-4c-1.65 0-3-1.35-3-3v-2c0-1.65 1.35-3 3-3h4c1.65 0 3 1.35 3 3v2c0 1.65-1.35 3-3 3zM317 358l-2 3v-3zM349.542 357.458c1.93 0 1.934-3 0-3-1.93 0-1.934 3 0 3z"/>
  <g id="PhoneBG">
    <path class="st18" d="M191.188 366h-11.375c-2.647 0-4.813-2.166-4.813-4.813v-11.375c0-2.647 2.166-4.813 4.813-4.813h11.375c2.647 0 4.813 2.165 4.813 4.812v11.375c0 2.647-2.166 4.813-4.812 4.813z"/>
    <ellipse class="st12" cx="185.667" cy="355.375" rx="6.167" ry="10.458"/>
    <ellipse class="st12" cx="185.667" cy="355.375" rx="10.458" ry="6.167"/>
  </g>
  <path class="st19" d="M177.108 359.39v-7.72c0-2.544 2.08-4.625 4.625-4.625h7.72c2.545 0 4.626 2.08 4.626 4.625v7.72c0 2.545-2.082 4.626-4.626 4.626h-7.72c-2.545 0-4.626-2.08-4.626-4.625z"/>
  <ellipse class="st20" cx="185.604" cy="355.5" rx="8.438" ry="8.417"/>
  <path class="st21" d="M185.406 356.842l.042-.023 1.447-.787.472-.256 2.405 2.727.272.3.86.985-2.295 1.246c-.043.023-.085.046-.133.058-.005.016-.01.006-.01.006-.015.022-.026.028-.047.04-1.783.967-4.592-.78-6.283-3.894s-1.628-6.42.155-7.39c.02-.01.052-.028.08-.03.056-.044.11-.072.172-.106l2.233-1.213.396 1.428.066.222.983 3.512-.524.284-1.385.752c-.062.387.013.85.246 1.278.216.4.525.693.846.858z" id="XMLID_1_"/>
  <path class="st2" d="M276 90.667h-48.333c-.733 0-1.333-.6-1.333-1.333s.6-1.333 1.333-1.333H276c.733 0 1.333.6 1.333 1.334 0 .733-.6 1.333-1.333 1.333z"/>
  <path class="st22" d="M163 101h179v14H163z"/>
  <path class="st23" d="M167.25 104.25h7.25v7.25h-7.25z"/>
  <circle class="st23" cx="181.833" cy="108" r="3.75"/>
  <path class="st23" d="M194.397 104.088h-3.873l-1.937 3.787 1.937 3.787h3.873l1.936-3.787zM337.365 103.583v8.167h-12"/>
  <circle class="st17" cx="238" cy="355.979" r="2.5"/>
  <circle class="st17" cx="251.5" cy="355.979" r="2.5"/>
  <circle class="st24" cx="264" cy="355.979" r="2.5"/>
  <path class="st24" d="M181.333 131.667H208v26.667h-26.667z"/>
  <path class="st25" d="M213.333 131.333h106v4h-106zM213.333 140.667H320v16.667H213.333zM194.333 163.667h90.333v24.667h-90.333zM290.333 174.333h29.333v3.333h-29.333zM290.333 169h29.333v3.333h-29.333zM290.333 163.333h29.333v3.333h-29.333z"/>
  <path class="st26" d="M342.833 339.333s.167 21.833-.5 24.167c-.5 2.5-2.5 7.833-9.333 9.167-3.5.667-24.333.5-24.333.5L163.333 133l-.167-32 46.834-.167 132.833 238.5z"/>
  <path class="st27" d="M266.875 87.542l-28.542.04-10.625.293h47.875zM343.333 426.5c-2.583 3.75-7.917 5-7.917 5s5.167-2 7.583-6.75.832-50.417.832-50.417 2.668 47.75-.5 52.167zM270.646 402.708c1.813-16.5-12.813-22.25-19.375-21.375 5.25-.875 20.563 5.188 19.376 21.375zM233.125 396.417c-3.09 13.41 6.02 20.507 12.958 22.583-.002.005-8.208-3.917-10.917-9.417-2.708-5.5-2.04-13.166-2.04-13.166z"/>
</svg>
